<svg viewBox="225 215 395 166" fill="none" xmlns="http://www.w3.org/2000/svg" role="img" aria-label="OLNOO">
<g clip-path="url(#clip0_1_2)">
<path d="M233.47 313.02C233.46 300.47 234.49 289.76 239 278.42C243.68 266.67 253.17 257.38 266.1 257.37C279.04 257.36 288.54 266.63 293.24 278.37C297.77 289.7 298.82 300.41 298.83 312.97C298.85 325.52 297.81 336.23 293.3 347.57C288.62 359.32 279.14 368.61 266.2 368.62C253.26 368.63 243.76 359.36 239.06 347.62C234.53 336.28 233.48 325.57 233.47 313.02ZM266.22 351.2C279.25 351.17 279.42 321.4 279.39 312.8C279.37 304.2 279.06 274.43 266.03 274.46C253 274.5 252.84 304.27 252.86 312.87C252.88 321.47 253.2 351.23 266.22 351.2Z" fill="#0C1512"/>
<path d="M252.86 312.87C252.84 304.27 253 274.5 266.03 274.46C279.06 274.43 279.37 304.2 279.39 312.8C279.42 321.4 279.25 351.17 266.22 351.2C253.2 351.23 252.88 321.47 252.86 312.87Z" fill="white"/>
<path d="M312.38 224.14V366.3C312.38 366.537 312.573 366.73 312.81 366.73H331.21C331.447 366.73 331.64 366.537 331.64 366.3V224.14C331.64 223.903 331.447 223.71 331.21 223.71H312.81C312.573 223.71 312.38 223.903 312.38 224.14Z" fill="#0C1512"/>
<path d="M367.02 271.32C367.015 271.384 367.034 271.448 367.072 271.5C367.11 271.552 367.166 271.588 367.229 271.603C367.291 271.617 367.357 271.609 367.414 271.579C367.472 271.549 367.516 271.5 367.54 271.44C371.61 262.92 378.3 256.65 388.4 257.23C403.29 258.08 408.78 271.86 408.97 285.25C409.043 290.417 409.07 317.41 409.05 366.23C409.05 366.352 409.002 366.469 408.915 366.555C408.829 366.642 408.712 366.69 408.59 366.69H390.08C389.971 366.69 389.867 366.648 389.79 366.573C389.713 366.498 389.67 366.396 389.67 366.29C389.683 320.95 389.687 295.77 389.68 290.75C389.67 286.14 389.1 281.08 385.98 277.35C382.79 273.56 376.84 273.33 373.03 276.11C366.37 280.96 367.04 290.37 367.03 297.95C367.003 320.683 367.01 343.417 367.05 366.15C367.05 366.296 366.993 366.436 366.892 366.539C366.791 366.642 366.653 366.7 366.51 366.7H348.22C348.087 366.7 347.96 366.647 347.866 366.554C347.773 366.46 347.72 366.333 347.72 366.2V259.59C347.72 259.441 347.779 259.299 347.884 259.194C347.989 259.089 348.131 259.03 348.28 259.03H366.29C366.484 259.03 366.669 259.108 366.806 259.247C366.943 259.386 367.02 259.574 367.02 259.77V271.32Z" fill="#0C1512"/>
<path d="M426.14 305.32C434.047 303.313 440.41 302.08 445.23 301.62C450.497 301.12 454.573 301.047 457.46 301.4C467.59 302.65 474.46 303.76 482.2 297.77C483.86 298.55 485.473 298.907 487.04 298.84C488.53 307.75 490.63 315.96 494.22 324.37C498.18 333.67 499.34 341.85 497.86 351.86C494.853 351.607 492.15 352.573 489.75 354.76C482.45 361.39 476.31 366.56 466.45 367.38C447.92 368.94 436.01 359.04 430.03 342.63C425.79 330.98 425.7 317.66 426.14 305.32Z" fill="#F81A3E"/>
<path d="M428.33 286.8L447.5 284.99C460.27 288.19 471.12 291.39 482.2 297.77C474.46 303.76 467.59 302.65 457.46 301.4C454.573 301.047 450.497 301.12 445.23 301.62C440.41 302.08 434.047 303.313 426.14 305.32C426.087 299.013 426.817 292.84 428.33 286.8Z" fill="#E2192B"/>
<path d="M479.7 260.97C467.453 267.17 456.72 275.177 447.5 284.99L428.33 286.8C430.4 277.5 435.07 268.53 442.62 262.82C452.98 254.98 468.3 253.95 479.7 260.97Z" fill="#A23D2A"/>
<path d="M479.7 260.97C482.067 262.377 483.613 263.523 484.34 264.41C487.347 268.083 491 271.017 495.3 273.21C495.76 277.33 495.923 281.487 495.79 285.68C495.597 291.773 492.68 296.16 487.04 298.84C485.473 298.907 483.86 298.55 482.2 297.77C471.12 291.39 460.27 288.19 447.5 284.99C456.72 275.177 467.453 267.17 479.7 260.97Z" fill="#C95A38"/>
<path d="M495.3 273.21C500.533 270.61 507.277 266.473 515.53 260.8C521.93 256.407 529.683 253.503 538.79 252.09C535.94 268.57 533.85 283.95 538.67 299.82C539.883 303.807 541.07 307.887 542.23 312.06C537.683 316.4 534.08 319.96 531.42 322.74C527.947 326.353 524.907 330.557 522.3 335.35C518.073 343.137 513.733 350.893 509.28 358.62C506.9 356.813 504.517 355.067 502.13 353.38C500.917 352.527 499.493 352.02 497.86 351.86C499.34 341.85 498.18 333.67 494.22 324.37C490.63 315.96 488.53 307.75 487.04 298.84C492.68 296.16 495.597 291.773 495.79 285.68C495.923 281.487 495.76 277.33 495.3 273.21Z" fill="#F57258"/>
<path d="M509.28 358.62C513.733 350.893 518.073 343.137 522.3 335.35C524.907 330.557 527.947 326.353 531.42 322.74C534.08 319.96 537.683 316.4 542.23 312.06C549.577 309.473 556.943 308.607 564.33 309.46C563.95 313.14 563.017 316.677 561.53 320.07C554.09 325.79 547.9 331.67 544.32 340.58C543.433 342.787 541.75 347.523 539.27 354.79C537.89 358.83 535.107 363.93 530.92 370.09C522.913 367.717 515.7 363.893 509.28 358.62Z" fill="#E5717E"/>
<path d="M530.92 370.09C535.107 363.93 537.89 358.83 539.27 354.79C541.75 347.523 543.433 342.787 544.32 340.58C547.9 331.67 554.09 325.79 561.53 320.07C565.47 327.15 565.99 334.27 565.79 342.21L550.55 372.68C543.917 372.787 537.373 371.923 530.92 370.09Z" fill="#EE948A"/>
<path d="M538.79 252.09C554.997 249.843 569.843 253.457 583.33 262.93C589.923 267.557 595.253 273.163 599.32 279.75C588.193 290.41 576.53 300.313 564.33 309.46C556.943 308.607 549.577 309.473 542.23 312.06C541.07 307.887 539.883 303.807 538.67 299.82C533.85 283.95 535.94 268.57 538.79 252.09Z" fill="#FF8E52"/>
<path d="M565.79 342.21C569.103 341.603 571.437 341.1 572.79 340.7C579.343 338.767 590.283 335.347 605.61 330.44C603.677 336.787 600.717 342.553 596.73 347.74C585.083 362.887 569.69 371.2 550.55 372.68L565.79 342.21Z" fill="#E49BA5"/>
<path d="M564.33 309.46C576.53 300.313 588.193 290.41 599.32 279.75C608.967 295.63 611.063 312.527 605.61 330.44C590.283 335.347 579.343 338.767 572.79 340.7C571.437 341.1 569.103 341.603 565.79 342.21C565.99 334.27 565.47 327.15 561.53 320.07C563.017 316.677 563.95 313.14 564.33 309.46Z" fill="#F5A688"/>
</g>
<defs>
<clipPath id="clip0_1_2">
<rect width="596" height="842" fill="white" transform="matrix(0 -1 1 0 0 596)"/>
</clipPath>
</defs>
</svg>
