<svg width="842" height="596" viewBox="0 0 842 596" fill="none" xmlns="http://www.w3.org/2000/svg">
  <g clip-path="url(#logoBounds)">
    <path d="M233.47 313.02C233.46 300.47 234.49 289.76 239 278.42C243.68 266.67 253.17 257.38 266.1 257.37C279.04 257.36 288.54 266.63 293.24 278.37C297.77 289.7 298.82 300.41 298.83 312.97C298.85 325.52 297.81 336.23 293.3 347.57C288.62 359.32 279.14 368.61 266.2 368.62C253.26 368.63 243.76 359.36 239.06 347.62C234.53 336.28 233.48 325.57 233.47 313.02ZM266.22 351.2C279.25 351.17 279.42 321.4 279.39 312.8C279.37 304.2 279.06 274.43 266.03 274.46C253 274.5 252.84 304.27 252.86 312.87C252.88 321.47 253.2 351.23 266.22 351.2Z" fill="#0C1512"/>
    <path d="M252.86 312.87C252.84 304.27 253 274.5 266.03 274.46C279.06 274.43 279.37 304.2 279.39 312.8C279.42 321.4 279.25 351.17 266.22 351.2C253.2 351.23 252.88 321.47 252.86 312.87Z" fill="white"/>
    <path d="M312.38 224.14V366.3C312.38 366.537 312.573 366.73 312.81 366.73H331.21C331.447 366.73 331.64 366.537 331.64 366.3V224.14C331.64 223.903 331.447 223.71 331.21 223.71H312.81C312.573 223.71 312.38 223.903 312.38 224.14Z" fill="#0C1512"/>
    <path d="M367.02 271.32C367.015 271.384 367.034 271.448 367.072 271.5C367.11 271.552 367.166 271.588 367.229 271.603C367.291 271.617 367.357 271.609 367.414 271.579C367.472 271.549 367.516 271.5 367.54 271.44C371.61 262.92 378.3 256.65 388.4 257.23C403.29 258.08 408.78 271.86 408.97 285.25C409.043 290.417 409.07 317.41 409.05 366.23C409.05 366.352 409.002 366.469 408.915 366.555C408.829 366.642 408.712 366.69 408.59 366.69H390.08C389.971 366.69 389.867 366.648 389.79 366.573C389.713 366.498 389.67 366.396 389.67 366.29C389.683 320.95 389.687 295.77 389.68 290.75C389.67 286.14 389.1 281.08 385.98 277.35C382.79 273.56 376.84 273.33 373.03 276.11C366.37 280.96 367.04 290.37 367.03 297.95C367.003 320.683 367.01 343.417 367.05 366.15C367.05 366.296 366.993 366.436 366.892 366.539C366.791 366.642 366.653 366.7 366.51 366.7H348.22C348.087 366.7 347.96 366.647 347.866 366.554C347.773 366.46 347.72 366.333 347.72 366.2V259.59C347.72 259.441 347.779 259.299 347.884 259.194C347.989 259.089 348.131 259.03 348.28 259.03H366.29C366.484 259.03 366.669 259.108 366.806 259.247C366.943 259.386 367.02 259.574 367.02 259.77V271.32Z" fill="#0C1512"/>
    <g clip-path="url(#brandMarkSmooth)">
      <rect x="425" y="248" width="182" height="126" fill="url(#baseColor)"/>
      <rect x="425" y="248" width="182" height="126" fill="url(#topLeftShade)"/>
      <rect x="425" y="248" width="182" height="126" fill="url(#leftRedGlow)"/>
      <rect x="425" y="248" width="182" height="126" fill="url(#topRightOrange)"/>
      <rect x="425" y="248" width="182" height="126" fill="url(#bottomRightRose)"/>
    </g>
  </g>
  <defs>
    <linearGradient id="baseColor" x1="426" y1="314" x2="607" y2="314" gradientUnits="userSpaceOnUse">
      <stop stop-color="#F70B31"/>
      <stop offset="0.25" stop-color="#F3293F"/>
      <stop offset="0.5" stop-color="#EE645A"/>
      <stop offset="0.75" stop-color="#F69479"/>
      <stop offset="1" stop-color="#F4A98A"/>
    </linearGradient>
    <radialGradient id="topLeftShade" cx="0" cy="0" r="1" gradientUnits="userSpaceOnUse" gradientTransform="translate(436 250) rotate(38) scale(95 100)">
      <stop stop-color="#6B3A24" stop-opacity="0.96"/>
      <stop offset="0.25" stop-color="#A43A29" stop-opacity="0.65"/>
      <stop offset="0.75" stop-color="#A43729" stop-opacity="0"/>
      <stop offset="1" stop-color="#A43729" stop-opacity="0"/>
    </radialGradient>
    <radialGradient id="leftRedGlow" cx="0" cy="0" r="1" gradientUnits="userSpaceOnUse" gradientTransform="translate(425 359) rotate(-25) scale(110 100)">
      <stop stop-color="#FF003B" stop-opacity="0.96"/>
      <stop offset="0.58" stop-color="#FF0A42" stop-opacity="0.58"/>
      <stop offset="1" stop-color="#FF0A42" stop-opacity="0"/>
    </radialGradient>
    <radialGradient id="topRightOrange" cx="0" cy="0" r="1" gradientUnits="userSpaceOnUse" gradientTransform="translate(590 245) rotate(145) scale(130 105)">
      <stop stop-color="#FF873F" stop-opacity="0.94"/>
      <stop offset="0.55" stop-color="#FF9156" stop-opacity="0.78"/>
      <stop offset="1" stop-color="#FF9561" stop-opacity="0"/>
    </radialGradient>
    <radialGradient id="bottomRightRose" cx="0" cy="0" r="1" gradientUnits="userSpaceOnUse" gradientTransform="translate(590 390) rotate(-128) scale(135 115)">
      <stop stop-color="#E5A8AE" stop-opacity="0.95"/>
      <stop offset="0.55" stop-color="#E8A6A5" stop-opacity="0.6"/>
      <stop offset="1" stop-color="#EAA29E" stop-opacity="0"/>
    </radialGradient>
    <clipPath id="brandMarkSmooth">
      <path d="M495.3 273.21C508.7 266.44 521.41 254.78 538.79 252.09C554.997 249.843 569.843 253.457 583.33 262.93C589.923 267.557 595.253 273.163 599.32 279.75C608.967 295.63 611.063 312.527 605.61 330.44C603.677 336.787 600.717 342.553 596.73 347.74C585.083 362.887 569.69 371.2 550.55 372.68C543.917 372.787 537.373 371.923 530.92 370.09C522.913 367.717 515.7 363.893 509.28 358.62C506.9 356.813 504.517 355.067 502.13 353.38C500.917 352.527 499.493 352.02 497.86 351.86C494.853 351.607 492.15 352.573 489.75 354.76C482.45 361.39 476.31 366.56 466.45 367.38C447.92 368.94 436.01 359.04 430.03 342.63C425.79 330.98 425.7 317.66 426.14 305.32C426.087 299.013 426.817 292.84 428.33 286.8C430.4 277.5 435.07 268.53 442.62 262.82C452.98 254.98 468.3 253.95 479.7 260.97C482.067 262.377 483.613 263.523 484.34 264.41C487.347 268.083 491 271.017 495.3 273.21Z"/>
    </clipPath>
    <clipPath id="logoBounds">
      <rect width="596" height="842" fill="white" transform="matrix(0 -1 1 0 0 596)"/>
    </clipPath>
  </defs>
</svg>
